# xmcd
#
# Track frame offsets:
#	150
#	16074
#	35449
#	63891
#	81935
#	94968
#	108504
#	122914
#	138502
#	150848
#	166009
#	179309
#	198998
#
# Disc length: 2856 seconds
#
# Revision: 0
# Processed by: cddbd v1.5.2PL0 Copyright (c) Steve Scherf et al.
# Submitted via: EZCDAudioConverter 7.0.4.1
#
DISCID=9d0b260d
DTITLE=Ismo Haavisto - Mean Blue Train
DYEAR=2014
DGENRE=Blues
TTITLE0=Phone Sex Blues
TTITLE1=Voodoo Queen
TTITLE2=Mean Blue Train
TTITLE3=One Night
TTITLE4=Get Outta' Here!
TTITLE5=Before You Do Me Wrong
TTITLE6=I'm Drinkin' Whiskey (Do Not Disturb)
TTITLE7=Cabin Fever
TTITLE8=Daddy's Girl
TTITLE9=It's Forbidden To Love You
TTITLE10=My Home Town
TTITLE11=Robert Johnson's Grave
TTITLE12=I'm Talkin' 'bout You
EXTD=
EXTT0=
EXTT1=
EXTT2=
EXTT3=
EXTT4=
EXTT5=
EXTT6=
EXTT7=
EXTT8=
EXTT9=
EXTT10=
EXTT11=
EXTT12=
PLAYORDER=
